<?xml version="1.0" encoding="UTF-8" standalone="no"?>
<svg
   xmlns:dc="http://purl.org/dc/elements/1.1/"
   xmlns:cc="http://creativecommons.org/ns#"
   xmlns:rdf="http://www.w3.org/1999/02/22-rdf-syntax-ns#"
   xmlns:svg="http://www.w3.org/2000/svg"
   xmlns="http://www.w3.org/2000/svg"
   xmlns:sodipodi="http://sodipodi.sourceforge.net/DTD/sodipodi-0.dtd"
   xmlns:inkscape="http://www.inkscape.org/namespaces/inkscape"
   inkscape:export-ydpi="96"
   inkscape:export-xdpi="96"
   inkscape:export-filename="/mnt/datos/websites/fotógrafos.com.ar/firebase/site/imagenes/logo-512.png"
   inkscape:version="1.0 (4035a4fb49, 2020-05-01)"
   sodipodi:docname="logo-512.svg"
   id="svg10"
   version="1.1"
   viewBox="0 0 512 512"
   height="512"
   width="512">
  <metadata
     id="metadata16">
    <rdf:RDF>
      <cc:Work
         rdf:about="">
        <dc:format>image/svg+xml</dc:format>
        <dc:type
           rdf:resource="http://purl.org/dc/dcmitype/StillImage" />
        <dc:title>
        ionicons-v5-e
    </dc:title>
      </cc:Work>
    </rdf:RDF>
  </metadata>
  <defs
     id="defs14" />
  <sodipodi:namedview
     inkscape:current-layer="svg10"
     inkscape:window-maximized="1"
     inkscape:window-y="27"
     inkscape:window-x="0"
     inkscape:cy="256"
     inkscape:cx="256"
     inkscape:zoom="1.5996094"
     showgrid="false"
     id="namedview12"
     inkscape:window-height="1016"
     inkscape:window-width="1920"
     inkscape:pageshadow="2"
     inkscape:pageopacity="0"
     guidetolerance="10"
     gridtolerance="10"
     objecttolerance="10"
     borderopacity="1"
     bordercolor="#666666"
     pagecolor="#ffffff" />
  <title
     id="title2">
        ionicons-v5-e
    </title>
  <path
     d="M 210 96 C 201.38 96 193.69008 100.07914 188.08008 106.61914 L 161.46094 148.67969 C 155.85094 155.22969 148.62 160 140 160 L 80 160 A 32 32 0 0 0 48 192 L 48 384 A 32 32 0 0 0 80 416 L 432 416 A 32 32 0 0 0 464 384 L 464 192 A 32 32 0 0 0 432 160 L 373 160 C 364.35 160 356.14906 155.22969 350.53906 148.67969 L 323.91992 106.61914 C 318.30992 100.07914 310.62 96 302 96 L 210 96 z M 100 136 L 100 158 L 124 158 L 124 136 L 100 136 z "
     style="fill:none;stroke:#e63946;stroke-linecap:round;stroke-linejoin:round;stroke-width:32px;stroke-opacity:1"
     id="path4" />
  <path
     d="m 336,272 a 80,80 0 0 1 -80,80 80,80 0 0 1 -80,-80 80,80 0 0 1 80,-80 80,80 0 0 1 80,80"
     style="fill:#e63946;fill-opacity:1;stroke:none;stroke-width:32px;stroke-miterlimit:10"
     id="circle6" />
</svg>
