<?xml version="1.0" encoding="UTF-8" standalone="no"?>
<svg
   xmlns:dc="http://purl.org/dc/elements/1.1/"
   xmlns:cc="http://creativecommons.org/ns#"
   xmlns:rdf="http://www.w3.org/1999/02/22-rdf-syntax-ns#"
   xmlns:svg="http://www.w3.org/2000/svg"
   xmlns="http://www.w3.org/2000/svg"
   xmlns:sodipodi="http://sodipodi.sourceforge.net/DTD/sodipodi-0.dtd"
   xmlns:inkscape="http://www.inkscape.org/namespaces/inkscape"
   width="135.46666mm"
   height="135.46666mm"
   viewBox="0 0 135.46666 135.46666"
   version="1.1"
   id="svg8"
   inkscape:version="1.0 (4035a4fb49, 2020-05-01)"
   sodipodi:docname="logo.svg">
  <defs
     id="defs2">
    <inkscape:path-effect
       only_selected="false"
       apply_with_weight="true"
       apply_no_weight="true"
       helper_size="0"
       steps="2"
       weight="33.333333"
       lpeversion="1"
       is_visible="true"
       id="path-effect1089"
       effect="bspline" />
    <inkscape:path-effect
       effect="bspline"
       id="path-effect1081"
       is_visible="true"
       lpeversion="1"
       weight="33.333333"
       steps="2"
       helper_size="0"
       apply_no_weight="true"
       apply_with_weight="true"
       only_selected="false" />
    <inkscape:path-effect
       only_selected="false"
       apply_with_weight="true"
       apply_no_weight="true"
       helper_size="0"
       steps="2"
       weight="33.333333"
       lpeversion="1"
       is_visible="true"
       id="path-effect1073"
       effect="bspline" />
    <inkscape:path-effect
       effect="bspline"
       id="path-effect1065"
       is_visible="true"
       lpeversion="1"
       weight="33.333333"
       steps="2"
       helper_size="0"
       apply_no_weight="true"
       apply_with_weight="true"
       only_selected="false" />
    <inkscape:path-effect
       only_selected="false"
       apply_with_weight="true"
       apply_no_weight="true"
       helper_size="0"
       steps="2"
       weight="33.333333"
       lpeversion="1"
       is_visible="true"
       id="path-effect1057"
       effect="bspline" />
    <inkscape:path-effect
       effect="bspline"
       id="path-effect1038"
       is_visible="true"
       lpeversion="1"
       weight="33.333333"
       steps="2"
       helper_size="0"
       apply_no_weight="true"
       apply_with_weight="true"
       only_selected="false" />
    <inkscape:path-effect
       effect="bspline"
       id="path-effect1034"
       is_visible="true"
       lpeversion="1"
       weight="33.333333"
       steps="2"
       helper_size="0"
       apply_no_weight="true"
       apply_with_weight="true"
       only_selected="false" />
    <inkscape:path-effect
       effect="bspline"
       id="path-effect1030"
       is_visible="true"
       lpeversion="1"
       weight="33.333333"
       steps="2"
       helper_size="0"
       apply_no_weight="true"
       apply_with_weight="true"
       only_selected="false" />
    <inkscape:path-effect
       effect="bspline"
       id="path-effect957"
       is_visible="true"
       lpeversion="1"
       weight="33.333333"
       steps="2"
       helper_size="0"
       apply_no_weight="true"
       apply_with_weight="true"
       only_selected="false" />
    <inkscape:path-effect
       effect="powerstroke"
       id="path-effect953"
       is_visible="true"
       lpeversion="1"
       offset_points="0,6.32024"
       sort_points="true"
       interpolator_type="CubicBezierJohan"
       interpolator_beta="0.2"
       start_linecap_type="zerowidth"
       linejoin_type="extrp_arc"
       miter_limit="4"
       scale_width="1"
       end_linecap_type="zerowidth" />
    <inkscape:path-effect
       effect="powerstroke"
       id="path-effect947"
       is_visible="true"
       lpeversion="1"
       offset_points="0,0.1322915"
       sort_points="true"
       interpolator_type="CubicBezierJohan"
       interpolator_beta="0.2"
       start_linecap_type="zerowidth"
       linejoin_type="extrp_arc"
       miter_limit="4"
       scale_width="1"
       end_linecap_type="zerowidth" />
    <inkscape:path-effect
       effect="bspline"
       id="path-effect945"
       is_visible="true"
       lpeversion="1"
       weight="33.333333"
       steps="2"
       helper_size="0"
       apply_no_weight="true"
       apply_with_weight="true"
       only_selected="false" />
    <inkscape:path-effect
       effect="bspline"
       id="path-effect885"
       is_visible="true"
       lpeversion="1"
       weight="33.333333"
       steps="2"
       helper_size="0"
       apply_no_weight="true"
       apply_with_weight="true"
       only_selected="false" />
    <inkscape:path-effect
       only_selected="false"
       apply_with_weight="true"
       apply_no_weight="true"
       helper_size="0"
       steps="2"
       weight="33.333333"
       lpeversion="1"
       is_visible="true"
       id="path-effect881"
       effect="bspline" />
    <inkscape:path-effect
       effect="bspline"
       id="path-effect54"
       is_visible="true"
       lpeversion="1"
       weight="33.333333"
       steps="2"
       helper_size="0"
       apply_no_weight="true"
       apply_with_weight="true"
       only_selected="false" />
    <inkscape:path-effect
       effect="bspline"
       id="path-effect30"
       is_visible="true"
       lpeversion="1"
       weight="33.333333"
       steps="2"
       helper_size="0"
       apply_no_weight="true"
       apply_with_weight="true"
       only_selected="false" />
    <clipPath
       clipPathUnits="userSpaceOnUse"
       id="clipPath889">
      <rect
         style="fill:#ffffff;stroke:#ffffff;stroke-width:1"
         id="rect891"
         width="36.643665"
         height="40.12632"
         x="-28.921238"
         y="111.14235" />
    </clipPath>
  </defs>
  <sodipodi:namedview
     fit-margin-bottom="0"
     fit-margin-right="0"
     fit-margin-left="0"
     fit-margin-top="0"
     id="base"
     pagecolor="#ffffff"
     bordercolor="#666666"
     borderopacity="1.0"
     inkscape:pageopacity="0.0"
     inkscape:pageshadow="2"
     inkscape:zoom="0.19499603"
     inkscape:cx="1047.1534"
     inkscape:cy="357.7718"
     inkscape:document-units="px"
     inkscape:current-layer="layer1"
     inkscape:document-rotation="0"
     showgrid="false"
     showguides="false"
     inkscape:guide-bbox="true"
     inkscape:window-width="1920"
     inkscape:window-height="1016"
     inkscape:window-x="0"
     inkscape:window-y="27"
     inkscape:window-maximized="1" />
  <metadata
     id="metadata5">
    <rdf:RDF>
      <cc:Work
         rdf:about="">
        <dc:format>image/svg+xml</dc:format>
        <dc:type
           rdf:resource="http://purl.org/dc/dcmitype/StillImage" />
        <dc:title></dc:title>
      </cc:Work>
    </rdf:RDF>
  </metadata>
  <g
     transform="translate(-40.040077,-83.540092)"
     inkscape:label="Layer 1"
     inkscape:groupmode="layer"
     id="layer1">
    <circle
       style="fill:#ffffff;fill-opacity:1;stroke:none;stroke-width:0.242914;stroke-linejoin:round;paint-order:markers fill stroke"
       id="path1213"
       cx="107.77341"
       cy="151.27342"
       r="67.73333" />
    <g
       inkscape:transform-center-y="-36.786517"
       inkscape:transform-center-x="7.3158953"
       id="g996"
       transform="rotate(-55.72013,89.19265,118.45687)"
       style="fill:none;stroke:#000000;stroke-width:0.25" />
    <g
       inkscape:transform-center-y="13.779293"
       inkscape:transform-center-x="-34.677085"
       id="g1008"
       transform="rotate(64.27987,89.192661,118.45687)" />
    <g
       id="g1251"
       transform="matrix(0.95432756,0,0,0.95432756,6.8755934,67.098365)">
      <g
         transform="translate(16.621599,4.7490283)"
         style="stroke:none;stroke-width:0.25"
         inkscape:transform-center-y="-34.415327"
         inkscape:transform-center-x="9.8932814"
         id="g1049">
        <path
           style="fill:none;stroke:none;stroke-width:0.25;stroke-linecap:butt;stroke-linejoin:miter;stroke-opacity:1"
           d="m 57.708791,41.801084 c 0.8128,-0.836155 4.017539,-0.836155 6.502367,0.139339 2.484827,0.975494 4.249722,2.926166 6.711412,4.31946 2.46169,1.393295 5.619861,2.229281 8.545892,2.06665 2.92603,-0.162631 5.619814,-1.323745 7.802706,-2.740322 2.182892,-1.416578 3.854897,-3.088583 6.154111,-3.924601 2.299213,-0.836019 5.225221,-0.836019 6.595211,-0.278555 1.36999,0.557464 1.18421,1.672136 -0.534311,6.479293 -1.718525,4.807158 -4.969646,13.306513 -7.059704,18.740659 -2.090058,5.434146 -3.018948,7.802817 -3.645807,8.987109 -0.626858,1.184291 -0.95197,1.184291 -3.552974,-1.579131 C 82.626689,71.247563 77.750008,65.720658 73.175086,60.588382 68.600163,55.456106 64.327262,50.71876 61.401184,47.514002 58.475106,44.309244 56.895991,42.637239 57.708791,41.801084 Z"
           id="path1028"
           inkscape:path-effect="#path-effect1030"
           inkscape:original-d="m 55.316588,40.964929 c 3.205003,2.65e-4 6.409742,2.65e-4 9.614217,0 1.765194,1.950975 3.530089,3.901647 5.294788,5.852131 3.158619,0.8363 6.31679,1.672286 9.474881,2.508057 2.694156,-1.160895 5.38794,-2.322009 8.081515,-3.483412 1.672336,-1.671807 3.344341,-3.343812 5.016113,-5.016114 2.92639,2.65e-4 5.852398,2.65e-4 8.778198,0 -0.18552,1.114978 -0.3713,2.229649 -0.55734,3.344077 -3.25099,8.499959 -6.502108,16.999315 -9.75356,25.498578 -0.928663,2.369032 -1.857555,4.737703 -2.786729,7.106161 -0.324861,2.64e-4 -0.649973,2.64e-4 -0.975355,0 C 82.626707,71.247547 77.750026,65.720642 72.872985,60.193364 68.600179,55.456092 64.327277,50.718746 60.054026,45.981043 58.475115,44.309236 56.895999,42.637231 55.316588,40.964929 Z"
           sodipodi:nodetypes="cccccccccccccc" />
        <path
           id="path1040"
           style="fill:none;stroke:none;stroke-width:0.25;stroke-linejoin:round;paint-order:markers fill stroke"
           d="M 89.175358,32.186729 A 10.450237,10.450237 0 0 1 78.725121,42.636967 10.450237,10.450237 0 0 1 68.274883,32.186729 10.450237,10.450237 0 0 1 78.725121,21.736492 10.450237,10.450237 0 0 1 89.175358,32.186729 Z" />
      </g>
      <g
         style="stroke:none;stroke-width:0.25"
         transform="rotate(60,93.303037,100.22374)"
         id="g1055"
         inkscape:transform-center-x="-27.589558"
         inkscape:transform-center-y="-26.124897">
        <path
           sodipodi:nodetypes="cccccccccccccc"
           inkscape:original-d="m 55.316588,40.964929 c 3.205003,2.65e-4 6.409742,2.65e-4 9.614217,0 1.765194,1.950975 3.530089,3.901647 5.294788,5.852131 3.158619,0.8363 6.31679,1.672286 9.474881,2.508057 2.694156,-1.160895 5.38794,-2.322009 8.081515,-3.483412 1.672336,-1.671807 3.344341,-3.343812 5.016113,-5.016114 2.92639,2.65e-4 5.852398,2.65e-4 8.778198,0 -0.18552,1.114978 -0.3713,2.229649 -0.55734,3.344077 -3.25099,8.499959 -6.502108,16.999315 -9.75356,25.498578 -0.928663,2.369032 -1.857555,4.737703 -2.786729,7.106161 -0.324861,2.64e-4 -0.649973,2.64e-4 -0.975355,0 C 82.626707,71.247547 77.750026,65.720642 72.872985,60.193364 68.600179,55.456092 64.327277,50.718746 60.054026,45.981043 58.475115,44.309236 56.895999,42.637231 55.316588,40.964929 Z"
           inkscape:path-effect="#path-effect1057"
           id="path1051"
           d="m 57.708791,41.801084 c 0.8128,-0.836155 4.017539,-0.836155 6.502367,0.139339 2.484827,0.975494 4.249722,2.926166 6.711412,4.31946 2.46169,1.393295 5.619861,2.229281 8.545892,2.06665 2.92603,-0.162631 5.619814,-1.323745 7.802706,-2.740322 2.182892,-1.416578 3.854897,-3.088583 6.154111,-3.924601 2.299213,-0.836019 5.225221,-0.836019 6.595211,-0.278555 1.36999,0.557464 1.18421,1.672136 -0.534311,6.479293 -1.718525,4.807158 -4.969646,13.306513 -7.059704,18.740659 -2.090058,5.434146 -3.018948,7.802817 -3.645807,8.987109 -0.626858,1.184291 -0.95197,1.184291 -3.552974,-1.579131 C 82.626689,71.247563 77.750008,65.720658 73.175086,60.588382 68.600163,55.456106 64.327262,50.71876 61.401184,47.514002 58.475106,44.309244 56.895991,42.637239 57.708791,41.801084 Z"
           style="fill:none;stroke:none;stroke-width:0.25;stroke-linecap:butt;stroke-linejoin:miter;stroke-opacity:1" />
        <path
           d="M 89.175358,32.186729 A 10.450237,10.450237 0 0 1 78.725121,42.636967 10.450237,10.450237 0 0 1 68.274883,32.186729 10.450237,10.450237 0 0 1 78.725121,21.736492 10.450237,10.450237 0 0 1 89.175358,32.186729 Z"
           style="fill:none;stroke:none;stroke-width:0.25;stroke-linejoin:round;paint-order:markers fill stroke"
           id="path1053" />
      </g>
      <g
         style="stroke:none;stroke-width:0.25"
         inkscape:transform-center-y="11.922206"
         inkscape:transform-center-x="-33.339009"
         id="g1063"
         transform="rotate(120,96.04489,90.627251)">
        <path
           style="fill:none;stroke:none;stroke-width:0.25;stroke-linecap:butt;stroke-linejoin:miter;stroke-opacity:1"
           d="m 57.708791,41.801084 c 0.8128,-0.836155 4.017539,-0.836155 6.502367,0.139339 2.484827,0.975494 4.249722,2.926166 6.711412,4.31946 2.46169,1.393295 5.619861,2.229281 8.545892,2.06665 2.92603,-0.162631 5.619814,-1.323745 7.802706,-2.740322 2.182892,-1.416578 3.854897,-3.088583 6.154111,-3.924601 2.299213,-0.836019 5.225221,-0.836019 6.595211,-0.278555 1.36999,0.557464 1.18421,1.672136 -0.534311,6.479293 -1.718525,4.807158 -4.969646,13.306513 -7.059704,18.740659 -2.090058,5.434146 -3.018948,7.802817 -3.645807,8.987109 -0.626858,1.184291 -0.95197,1.184291 -3.552974,-1.579131 C 82.626689,71.247563 77.750008,65.720658 73.175086,60.588382 68.600163,55.456106 64.327262,50.71876 61.401184,47.514002 58.475106,44.309244 56.895991,42.637239 57.708791,41.801084 Z"
           id="path1059"
           inkscape:path-effect="#path-effect1065"
           inkscape:original-d="m 55.316588,40.964929 c 3.205003,2.65e-4 6.409742,2.65e-4 9.614217,0 1.765194,1.950975 3.530089,3.901647 5.294788,5.852131 3.158619,0.8363 6.31679,1.672286 9.474881,2.508057 2.694156,-1.160895 5.38794,-2.322009 8.081515,-3.483412 1.672336,-1.671807 3.344341,-3.343812 5.016113,-5.016114 2.92639,2.65e-4 5.852398,2.65e-4 8.778198,0 -0.18552,1.114978 -0.3713,2.229649 -0.55734,3.344077 -3.25099,8.499959 -6.502108,16.999315 -9.75356,25.498578 -0.928663,2.369032 -1.857555,4.737703 -2.786729,7.106161 -0.324861,2.64e-4 -0.649973,2.64e-4 -0.975355,0 C 82.626707,71.247547 77.750026,65.720642 72.872985,60.193364 68.600179,55.456092 64.327277,50.718746 60.054026,45.981043 58.475115,44.309236 56.895999,42.637231 55.316588,40.964929 Z"
           sodipodi:nodetypes="cccccccccccccc" />
        <path
           id="path1061"
           style="fill:none;stroke:none;stroke-width:0.25;stroke-linejoin:round;paint-order:markers fill stroke"
           d="M 89.175358,32.186729 A 10.450237,10.450237 0 0 1 78.725121,42.636967 10.450237,10.450237 0 0 1 68.274883,32.186729 10.450237,10.450237 0 0 1 78.725121,21.736492 10.450237,10.450237 0 0 1 89.175358,32.186729 Z" />
      </g>
      <g
         style="stroke:none;stroke-width:0.25"
         transform="rotate(180,97.415816,85.829009)"
         id="g1071"
         inkscape:transform-center-x="-9.8932817"
         inkscape:transform-center-y="34.415326">
        <path
           sodipodi:nodetypes="cccccccccccccc"
           inkscape:original-d="m 55.316588,40.964929 c 3.205003,2.65e-4 6.409742,2.65e-4 9.614217,0 1.765194,1.950975 3.530089,3.901647 5.294788,5.852131 3.158619,0.8363 6.31679,1.672286 9.474881,2.508057 2.694156,-1.160895 5.38794,-2.322009 8.081515,-3.483412 1.672336,-1.671807 3.344341,-3.343812 5.016113,-5.016114 2.92639,2.65e-4 5.852398,2.65e-4 8.778198,0 -0.18552,1.114978 -0.3713,2.229649 -0.55734,3.344077 -3.25099,8.499959 -6.502108,16.999315 -9.75356,25.498578 -0.928663,2.369032 -1.857555,4.737703 -2.786729,7.106161 -0.324861,2.64e-4 -0.649973,2.64e-4 -0.975355,0 C 82.626707,71.247547 77.750026,65.720642 72.872985,60.193364 68.600179,55.456092 64.327277,50.718746 60.054026,45.981043 58.475115,44.309236 56.895999,42.637231 55.316588,40.964929 Z"
           inkscape:path-effect="#path-effect1073"
           id="path1067"
           d="m 57.708791,41.801084 c 0.8128,-0.836155 4.017539,-0.836155 6.502367,0.139339 2.484827,0.975494 4.249722,2.926166 6.711412,4.31946 2.46169,1.393295 5.619861,2.229281 8.545892,2.06665 2.92603,-0.162631 5.619814,-1.323745 7.802706,-2.740322 2.182892,-1.416578 3.854897,-3.088583 6.154111,-3.924601 2.299213,-0.836019 5.225221,-0.836019 6.595211,-0.278555 1.36999,0.557464 1.18421,1.672136 -0.534311,6.479293 -1.718525,4.807158 -4.969646,13.306513 -7.059704,18.740659 -2.090058,5.434146 -3.018948,7.802817 -3.645807,8.987109 -0.626858,1.184291 -0.95197,1.184291 -3.552974,-1.579131 C 82.626689,71.247563 77.750008,65.720658 73.175086,60.588382 68.600163,55.456106 64.327262,50.71876 61.401184,47.514002 58.475106,44.309244 56.895991,42.637239 57.708791,41.801084 Z"
           style="fill:none;stroke:none;stroke-width:0.25;stroke-linecap:butt;stroke-linejoin:miter;stroke-opacity:1" />
        <path
           d="M 89.175358,32.186729 A 10.450237,10.450237 0 0 1 78.725121,42.636967 10.450237,10.450237 0 0 1 68.274883,32.186729 10.450237,10.450237 0 0 1 78.725121,21.736492 10.450237,10.450237 0 0 1 89.175358,32.186729 Z"
           style="fill:none;stroke:none;stroke-width:0.25;stroke-linejoin:round;paint-order:markers fill stroke"
           id="path1069" />
      </g>
      <g
         transform="translate(16.621599,4.7490283)"
         id="g1159">
        <path
           d="M 76.929158,42.121269 C 71.088235,41.021996 66.872547,34.16674 69.390157,28.562302 c 2.029473,-5.526912 9.409546,-8.432885 14.430344,-5.016587 4.975315,2.902597 6.68472,10.375354 2.728914,14.807237 -2.243565,2.810313 -6.020271,4.561893 -9.620257,3.768317 z"
           style="fill:#e63946;fill-opacity:1;stroke:none;stroke-width:0.37238;stroke-linejoin:round;paint-order:markers fill stroke"
           id="path1095" />
        <path
           id="path1097"
           d="M 85.17461,73.315299 C 82.78017,70.80717 65.852787,51.996922 60.485761,45.88026 c -1.357235,-1.546807 -2.419786,-3.078395 -2.361218,-3.403531 0.14106,-0.7831 3.133074,-1.000845 5.223023,-0.380106 0.867029,0.257517 2.954266,1.438418 4.63831,2.624225 4.049223,2.851232 6.701698,3.78695 10.731712,3.785841 3.965345,-0.0011 6.023187,-0.771533 10.696536,-4.004704 2.563889,-1.77378 4.098155,-2.546956 5.735666,-2.890427 2.850613,-0.597924 5.18801,-0.114599 5.36261,1.108871 0.21876,1.532959 -11.721494,33.255065 -12.517261,33.255065 -0.154503,0 -1.423741,-1.197087 -2.820529,-2.660195 z"
           style="fill:#e63946;fill-opacity:1;stroke:none;stroke-width:0.37238;stroke-linejoin:round;paint-order:markers fill stroke" />
      </g>
      <g
         style="stroke:none;stroke-width:0.25"
         transform="rotate(-60,101.5286,71.434282)"
         id="g1087"
         inkscape:transform-center-x="33.339008"
         inkscape:transform-center-y="-11.922206">
        <path
           sodipodi:nodetypes="cccccccccccccc"
           inkscape:original-d="m 55.316588,40.964929 c 3.205003,2.65e-4 6.409742,2.65e-4 9.614217,0 1.765194,1.950975 3.530089,3.901647 5.294788,5.852131 3.158619,0.8363 6.31679,1.672286 9.474881,2.508057 2.694156,-1.160895 5.38794,-2.322009 8.081515,-3.483412 1.672336,-1.671807 3.344341,-3.343812 5.016113,-5.016114 2.92639,2.65e-4 5.852398,2.65e-4 8.778198,0 -0.18552,1.114978 -0.3713,2.229649 -0.55734,3.344077 -3.25099,8.499959 -6.502108,16.999315 -9.75356,25.498578 -0.928663,2.369032 -1.857555,4.737703 -2.786729,7.106161 -0.324861,2.64e-4 -0.649973,2.64e-4 -0.975355,0 C 82.626707,71.247547 77.750026,65.720642 72.872985,60.193364 68.600179,55.456092 64.327277,50.718746 60.054026,45.981043 58.475115,44.309236 56.895999,42.637231 55.316588,40.964929 Z"
           inkscape:path-effect="#path-effect1089"
           id="path1083"
           d="m 57.708791,41.801084 c 0.8128,-0.836155 4.017539,-0.836155 6.502367,0.139339 2.484827,0.975494 4.249722,2.926166 6.711412,4.31946 2.46169,1.393295 5.619861,2.229281 8.545892,2.06665 2.92603,-0.162631 5.619814,-1.323745 7.802706,-2.740322 2.182892,-1.416578 3.854897,-3.088583 6.154111,-3.924601 2.299213,-0.836019 5.225221,-0.836019 6.595211,-0.278555 1.36999,0.557464 1.18421,1.672136 -0.534311,6.479293 -1.718525,4.807158 -4.969646,13.306513 -7.059704,18.740659 -2.090058,5.434146 -3.018948,7.802817 -3.645807,8.987109 -0.626858,1.184291 -0.95197,1.184291 -3.552974,-1.579131 C 82.626689,71.247563 77.750008,65.720658 73.175086,60.588382 68.600163,55.456106 64.327262,50.71876 61.401184,47.514002 58.475106,44.309244 56.895991,42.637239 57.708791,41.801084 Z"
           style="fill:none;stroke:none;stroke-width:0.25;stroke-linecap:butt;stroke-linejoin:miter;stroke-opacity:1" />
        <path
           d="M 89.175358,32.186729 A 10.450237,10.450237 0 0 1 78.725121,42.636967 10.450237,10.450237 0 0 1 68.274883,32.186729 10.450237,10.450237 0 0 1 78.725121,21.736492 10.450237,10.450237 0 0 1 89.175358,32.186729 Z"
           style="fill:none;stroke:none;stroke-width:0.25;stroke-linejoin:round;paint-order:markers fill stroke"
           id="path1085" />
      </g>
      <g
         transform="translate(16.621599,4.7490283)"
         inkscape:transform-center-y="-34.260847"
         inkscape:transform-center-x="10.176489"
         id="g1165">
        <path
           id="path1161"
           style="fill:#e63946;fill-opacity:1;stroke:none;stroke-width:0.37238;stroke-linejoin:round;paint-order:markers fill stroke"
           d="M 76.929158,42.121269 C 71.088235,41.021996 66.872547,34.16674 69.390157,28.562302 c 2.029473,-5.526912 9.409546,-8.432885 14.430344,-5.016587 4.975315,2.902597 6.68472,10.375354 2.728914,14.807237 -2.243565,2.810313 -6.020271,4.561893 -9.620257,3.768317 z" />
        <path
           style="fill:#e63946;fill-opacity:1;stroke:none;stroke-width:0.37238;stroke-linejoin:round;paint-order:markers fill stroke"
           d="M 85.17461,73.315299 C 82.78017,70.80717 65.852787,51.996922 60.485761,45.88026 c -1.357235,-1.546807 -2.419786,-3.078395 -2.361218,-3.403531 0.14106,-0.7831 3.133074,-1.000845 5.223023,-0.380106 0.867029,0.257517 2.954266,1.438418 4.63831,2.624225 4.049223,2.851232 6.701698,3.78695 10.731712,3.785841 3.965345,-0.0011 6.023187,-0.771533 10.696536,-4.004704 2.563889,-1.77378 4.098155,-2.546956 5.735666,-2.890427 2.850613,-0.597924 5.18801,-0.114599 5.36261,1.108871 0.21876,1.532959 -11.721494,33.255065 -12.517261,33.255065 -0.154503,0 -1.423741,-1.197087 -2.820529,-2.660195 z"
           id="path1163" />
      </g>
      <g
         transform="rotate(60,93.69331,100.05676)"
         id="g1187"
         inkscape:transform-center-x="-27.248127"
         inkscape:transform-center-y="-26.244624">
        <path
           d="M 76.929158,42.121269 C 71.088235,41.021996 66.872547,34.16674 69.390157,28.562302 c 2.029473,-5.526912 9.409546,-8.432885 14.430344,-5.016587 4.975315,2.902597 6.68472,10.375354 2.728914,14.807237 -2.243565,2.810313 -6.020271,4.561893 -9.620257,3.768317 z"
           style="fill:#e63946;fill-opacity:1;stroke:none;stroke-width:0.37238;stroke-linejoin:round;paint-order:markers fill stroke"
           id="path1183" />
        <path
           id="path1185"
           d="M 85.17461,73.315299 C 82.78017,70.80717 65.852787,51.996922 60.485761,45.88026 c -1.357235,-1.546807 -2.419786,-3.078395 -2.361218,-3.403531 0.14106,-0.7831 3.133074,-1.000845 5.223023,-0.380106 0.867029,0.257517 2.954266,1.438418 4.63831,2.624225 4.049223,2.851232 6.701698,3.78695 10.731712,3.785841 3.965345,-0.0011 6.023187,-0.771533 10.696536,-4.004704 2.563889,-1.77378 4.098155,-2.546956 5.735666,-2.890427 2.850613,-0.597924 5.18801,-0.114599 5.36261,1.108871 0.21876,1.532959 -11.721494,33.255065 -12.517261,33.255065 -0.154503,0 -1.423741,-1.197087 -2.820529,-2.660195 z"
           style="fill:#e63946;fill-opacity:1;stroke:none;stroke-width:0.37238;stroke-linejoin:round;paint-order:markers fill stroke" />
      </g>
      <g
         inkscape:transform-center-y="11.519277"
         inkscape:transform-center-x="-33.359009"
         id="g1193"
         transform="rotate(120,96.435163,90.460273)">
        <path
           id="path1189"
           style="fill:#e63946;fill-opacity:1;stroke:none;stroke-width:0.37238;stroke-linejoin:round;paint-order:markers fill stroke"
           d="M 76.929158,42.121269 C 71.088235,41.021996 66.872547,34.16674 69.390157,28.562302 c 2.029473,-5.526912 9.409546,-8.432885 14.430344,-5.016587 4.975315,2.902597 6.68472,10.375354 2.728914,14.807237 -2.243565,2.810313 -6.020271,4.561893 -9.620257,3.768317 z" />
        <path
           style="fill:#e63946;fill-opacity:1;stroke:none;stroke-width:0.37238;stroke-linejoin:round;paint-order:markers fill stroke"
           d="M 85.17461,73.315299 C 82.78017,70.80717 65.852787,51.996922 60.485761,45.88026 c -1.357235,-1.546807 -2.419786,-3.078395 -2.361218,-3.403531 0.14106,-0.7831 3.133074,-1.000845 5.223023,-0.380106 0.867029,0.257517 2.954266,1.438418 4.63831,2.624225 4.049223,2.851232 6.701698,3.78695 10.731712,3.785841 3.965345,-0.0011 6.023187,-0.771533 10.696536,-4.004704 2.563889,-1.77378 4.098155,-2.546956 5.735666,-2.890427 2.850613,-0.597924 5.18801,-0.114599 5.36261,1.108871 0.21876,1.532959 -11.721494,33.255065 -12.517261,33.255065 -0.154503,0 -1.423741,-1.197087 -2.820529,-2.660195 z"
           id="path1191" />
      </g>
      <g
         transform="rotate(180,97.806089,85.662031)"
         id="g1199"
         inkscape:transform-center-x="-10.176488"
         inkscape:transform-center-y="34.260847">
        <path
           d="M 76.929158,42.121269 C 71.088235,41.021996 66.872547,34.16674 69.390157,28.562302 c 2.029473,-5.526912 9.409546,-8.432885 14.430344,-5.016587 4.975315,2.902597 6.68472,10.375354 2.728914,14.807237 -2.243565,2.810313 -6.020271,4.561893 -9.620257,3.768317 z"
           style="fill:#e63946;fill-opacity:1;stroke:none;stroke-width:0.37238;stroke-linejoin:round;paint-order:markers fill stroke"
           id="path1195" />
        <path
           id="path1197"
           d="M 85.17461,73.315299 C 82.78017,70.80717 65.852787,51.996922 60.485761,45.88026 c -1.357235,-1.546807 -2.419786,-3.078395 -2.361218,-3.403531 0.14106,-0.7831 3.133074,-1.000845 5.223023,-0.380106 0.867029,0.257517 2.954266,1.438418 4.63831,2.624225 4.049223,2.851232 6.701698,3.78695 10.731712,3.785841 3.965345,-0.0011 6.023187,-0.771533 10.696536,-4.004704 2.563889,-1.77378 4.098155,-2.546956 5.735666,-2.890427 2.850613,-0.597924 5.18801,-0.114599 5.36261,1.108871 0.21876,1.532959 -11.721494,33.255065 -12.517261,33.255065 -0.154503,0 -1.423741,-1.197087 -2.820529,-2.660195 z"
           style="fill:#e63946;fill-opacity:1;stroke:none;stroke-width:0.37238;stroke-linejoin:round;paint-order:markers fill stroke" />
      </g>
      <g
         inkscape:transform-center-y="26.244624"
         inkscape:transform-center-x="27.248128"
         id="g1205"
         transform="rotate(-120,99.177016,80.863789)">
        <path
           id="path1201"
           style="fill:#e63946;fill-opacity:1;stroke:none;stroke-width:0.37238;stroke-linejoin:round;paint-order:markers fill stroke"
           d="M 76.929158,42.121269 C 71.088235,41.021996 66.872547,34.16674 69.390157,28.562302 c 2.029473,-5.526912 9.409546,-8.432885 14.430344,-5.016587 4.975315,2.902597 6.68472,10.375354 2.728914,14.807237 -2.243565,2.810313 -6.020271,4.561893 -9.620257,3.768317 z" />
        <path
           style="fill:#e63946;fill-opacity:1;stroke:none;stroke-width:0.37238;stroke-linejoin:round;paint-order:markers fill stroke"
           d="M 85.17461,73.315299 C 82.78017,70.80717 65.852787,51.996922 60.485761,45.88026 c -1.357235,-1.546807 -2.419786,-3.078395 -2.361218,-3.403531 0.14106,-0.7831 3.133074,-1.000845 5.223023,-0.380106 0.867029,0.257517 2.954266,1.438418 4.63831,2.624225 4.049223,2.851232 6.701698,3.78695 10.731712,3.785841 3.965345,-0.0011 6.023187,-0.771533 10.696536,-4.004704 2.563889,-1.77378 4.098155,-2.546956 5.735666,-2.890427 2.850613,-0.597924 5.18801,-0.114599 5.36261,1.108871 0.21876,1.532959 -11.721494,33.255065 -12.517261,33.255065 -0.154503,0 -1.423741,-1.197087 -2.820529,-2.660195 z"
           id="path1203" />
      </g>
      <g
         transform="rotate(-60,101.91887,71.267303)"
         id="g1211"
         inkscape:transform-center-x="33.35901"
         inkscape:transform-center-y="-11.519277">
        <path
           d="M 76.929158,42.121269 C 71.088235,41.021996 66.872547,34.16674 69.390157,28.562302 c 2.029473,-5.526912 9.409546,-8.432885 14.430344,-5.016587 4.975315,2.902597 6.68472,10.375354 2.728914,14.807237 -2.243565,2.810313 -6.020271,4.561893 -9.620257,3.768317 z"
           style="fill:#e63946;fill-opacity:1;stroke:none;stroke-width:0.37238;stroke-linejoin:round;paint-order:markers fill stroke"
           id="path1207" />
        <path
           id="path1209"
           d="M 85.17461,73.315299 C 82.78017,70.80717 65.852787,51.996922 60.485761,45.88026 c -1.357235,-1.546807 -2.419786,-3.078395 -2.361218,-3.403531 0.14106,-0.7831 3.133074,-1.000845 5.223023,-0.380106 0.867029,0.257517 2.954266,1.438418 4.63831,2.624225 4.049223,2.851232 6.701698,3.78695 10.731712,3.785841 3.965345,-0.0011 6.023187,-0.771533 10.696536,-4.004704 2.563889,-1.77378 4.098155,-2.546956 5.735666,-2.890427 2.850613,-0.597924 5.18801,-0.114599 5.36261,1.108871 0.21876,1.532959 -11.721494,33.255065 -12.517261,33.255065 -0.154503,0 -1.423741,-1.197087 -2.820529,-2.660195 z"
           style="fill:#e63946;fill-opacity:1;stroke:none;stroke-width:0.37238;stroke-linejoin:round;paint-order:markers fill stroke" />
      </g>
    </g>
  </g>
</svg>
