<?xml version="1.0" encoding="UTF-8" standalone="no"?>
<svg
   xmlns:dc="http://purl.org/dc/elements/1.1/"
   xmlns:cc="http://creativecommons.org/ns#"
   xmlns:rdf="http://www.w3.org/1999/02/22-rdf-syntax-ns#"
   xmlns:svg="http://www.w3.org/2000/svg"
   xmlns="http://www.w3.org/2000/svg"
   xmlns:sodipodi="http://sodipodi.sourceforge.net/DTD/sodipodi-0.dtd"
   xmlns:inkscape="http://www.inkscape.org/namespaces/inkscape"
   width="360"
   height="740"
   viewBox="0 0 95.250003 195.79167"
   version="1.1"
   id="svg956"
   inkscape:version="1.0 (4035a4fb49, 2020-05-01)"
   sodipodi:docname="website.svg">
  <defs
     id="defs950" />
  <sodipodi:namedview
     id="base"
     pagecolor="#ffffff"
     bordercolor="#666666"
     borderopacity="1.0"
     inkscape:pageopacity="1"
     inkscape:pageshadow="2"
     inkscape:zoom="1.1148649"
     inkscape:cx="316.35857"
     inkscape:cy="353.33552"
     inkscape:document-units="px"
     inkscape:current-layer="layer1"
     inkscape:document-rotation="0"
     showgrid="false"
     units="px"
     inkscape:pagecheckerboard="false"
     inkscape:window-width="1920"
     inkscape:window-height="1016"
     inkscape:window-x="0"
     inkscape:window-y="0"
     inkscape:window-maximized="1" />
  <metadata
     id="metadata953">
    <rdf:RDF>
      <cc:Work
         rdf:about="">
        <dc:format>image/svg+xml</dc:format>
        <dc:type
           rdf:resource="http://purl.org/dc/dcmitype/StillImage" />
        <dc:title />
      </cc:Work>
    </rdf:RDF>
  </metadata>
  <g
     inkscape:label="Capa 1"
     inkscape:groupmode="layer"
     id="layer1">
    <rect
       style="fill:#ffffff;fill-opacity:1;stroke:#b5191a;stroke-width:0.231083;stroke-linecap:round"
       id="rect1148"
       width="37.754089"
       height="8.2532415"
       x="29.01038"
       y="27.236555"
       ry="0" />
    <g
       inkscape:export-ydpi="96"
       inkscape:export-xdpi="96"
       id="g1061"
       transform="matrix(0.49875788,0,0,0.49875788,-21.443562,-0.3743611)">
      <rect
         ry="0"
         y="7.6596212"
         x="50.951199"
         height="20.470093"
         width="39.106354"
         id="rect19"
         style="fill:#b5191a;fill-opacity:1;stroke-width:1.00517;stroke-linecap:round" />
      <g
         transform="matrix(0.24895434,0,0,0.24895434,52.650252,1.0321618)"
         id="g879">
        <g
           style="font-style:normal;font-variant:normal;font-weight:normal;font-stretch:normal;font-size:56.1987px;line-height:1.25;font-family:'Gilda Display';-inkscape-font-specification:'Gilda Display';fill:#ffffff;stroke:#ffffff;stroke-width:0.1"
           id="text12"
           aria-label="F">
          <path
             id="path881"
             style="font-style:normal;font-variant:normal;font-weight:normal;font-stretch:normal;font-family:'Gilda Display';-inkscape-font-specification:'Gilda Display';fill:#ffffff;stroke:#ffffff;stroke-width:0.1"
             d="m 51.793764,48.06378 v 8.092613 l -0.618185,-0.112397 q 0,-3.709115 -3.990108,-5.170281 Q 43.251562,49.35635 35.158949,49.35635 v 17.702591 q 3.259525,-0.112398 5.057883,-0.337192 1.854557,-0.280994 2.809935,-1.067776 0.955378,-0.84298 1.180173,-1.798358 0.224795,-0.955378 0.224795,-2.922332 l 0.674384,-0.112398 v 13.656284 l -0.674384,-0.112397 q 0,-2.58514 -0.561987,-3.709114 -0.505789,-1.123974 -2.472743,-1.685961 -1.910756,-0.561987 -6.238056,-0.674385 v 6.406652 q 0,7.980215 0.730583,9.328984 0.337193,0.730583 0.730583,1.404968 0.44959,0.618185 1.292571,0.84298 1.798358,0.44959 4.383498,0.44959 l 0.112398,0.674384 h -16.85961 l 0.112397,-0.674384 q 2.809935,0 4.102505,-1.067776 1.404968,-1.180172 1.404968,-10.958746 V 60.764686 q 0,-6.01326 -0.393391,-8.20501 -0.337193,-2.247948 -1.011577,-2.809935 -1.29257,-1.067775 -4.102505,-1.067775 L 25.548972,48.06378 Z" />
        </g>
        <g
           style="font-style:normal;font-variant:normal;font-weight:normal;font-stretch:normal;font-size:56.1987px;line-height:1.25;font-family:'Gilda Display';-inkscape-font-specification:'Gilda Display';fill:#ffffff;stroke:#ffffff;stroke-width:0.1"
           id="text16"
           aria-label="A">
          <path
             id="path884"
             style="font-style:normal;font-variant:normal;font-weight:normal;font-stretch:normal;font-family:'Gilda Display';-inkscape-font-specification:'Gilda Display';fill:#ffffff;stroke:#ffffff;stroke-width:0.1"
             d="m 113.76433,86.728486 q 2.13555,0 2.97853,-0.337192 0.89918,-0.337193 0.89918,-1.74216 0,-1.404968 -2.97854,-9.553779 H 97.522901 q -2.416544,7.137235 -2.416544,8.991792 0,1.798358 0.899179,2.247948 0.955378,0.393391 3.371922,0.393391 l 0.112398,0.674384 H 86.845148 l 0.112398,-0.674384 q 1.629762,0 2.528941,-0.280994 0.955378,-0.280993 2.023153,-1.461166 1.123974,-1.236371 2.135551,-3.540518 1.011576,-2.304147 2.416544,-6.462851 l 5.001685,-14.443065 q 2.64134,-7.643024 2.64134,-9.272786 0,-1.629762 -0.78678,-2.079352 -0.78679,-0.505788 -3.034733,-0.505788 L 99.770849,48.06378 h 9.272781 l 9.94717,26.919177 q 2.52895,6.687646 3.37193,8.486004 0.89918,1.798359 1.68596,2.304147 1.40497,0.955378 3.54052,0.955378 l 0.11239,0.674384 H 113.65193 Z M 105.89651,51.09851 97.972491,73.746586 h 16.241429 z" />
        </g>
        <path
           style="fill:none;stroke:#ffffff;stroke-width:2;stroke-linecap:butt;stroke-linejoin:miter;stroke-opacity:1"
           d="M 72.391948,48.063768 V 87.402899"
           id="path844" />
      </g>
    </g>
    <g
       aria-label="FOTOGRAFOS   ARGENTINOS"
       id="text848"
       style="font-style:normal;font-variant:normal;font-weight:normal;font-stretch:normal;font-size:7.95203px;line-height:1.25;font-family:'Gilda Display';-inkscape-font-specification:'Gilda Display';text-align:center;text-anchor:middle;fill:#b5191a;fill-opacity:1;stroke:#b5191a;stroke-width:0.1"
       transform="matrix(0.57236949,0,0,0.57236949,20.821681,-59.7187)">
      <path
         d="m 16.128717,116.48794 v 1.14509 l -0.08747,-0.0159 q 0,-0.52484 -0.564595,-0.73159 -0.556642,-0.2147 -1.701734,-0.2147 v 2.50488 q 0.461218,-0.0159 0.715683,-0.0477 0.262417,-0.0398 0.397601,-0.15109 0.135185,-0.11928 0.166993,-0.25446 0.03181,-0.13519 0.03181,-0.41351 l 0.09542,-0.0159 v 1.93234 l -0.09542,-0.0159 q 0,-0.36579 -0.07952,-0.52484 -0.07157,-0.15904 -0.34989,-0.23856 -0.270369,-0.0795 -0.882675,-0.0954 v 0.90653 q 0,1.12919 0.103376,1.32004 0.04771,0.10337 0.103377,0.1988 0.06362,0.0875 0.182896,0.11928 0.254465,0.0636 0.620259,0.0636 l 0.0159,0.0954 h -2.385609 l 0.0159,-0.0954 q 0.397601,0 0.580498,-0.15109 0.198801,-0.167 0.198801,-1.55065 v -1.9721 q 0,-0.85087 -0.05566,-1.161 -0.04771,-0.31808 -0.143137,-0.3976 -0.182897,-0.15109 -0.580498,-0.15109 l -0.0159,-0.0875 z"
         style="font-style:normal;font-variant:normal;font-weight:normal;font-stretch:normal;font-family:'Gilda Display';-inkscape-font-specification:'Gilda Display';text-align:center;text-anchor:middle;fill:#b5191a;fill-opacity:1;stroke:#b5191a;stroke-width:0.1"
         id="path887" />
      <path
         d="m 19.349286,116.41637 q 1.280277,0 2.043671,0.78725 0.771347,0.7793 0.771347,2.02777 0,1.24052 -0.74749,2.07548 -0.739539,0.82701 -2.011864,0.82701 -1.272325,0 -2.051624,-0.83496 -0.771347,-0.83497 -0.771347,-2.07548 0,-1.24847 0.739539,-2.02777 0.747491,-0.7793 2.027768,-0.7793 z m 0.04771,5.53461 q 1.01786,0 1.542694,-0.73158 0.532786,-0.73954 0.532786,-1.9403 0,-1.20076 -0.556642,-1.94029 -0.556642,-0.73954 -1.574502,-0.73954 -1.009908,0 -1.542694,0.73158 -0.524834,0.73159 -0.524834,1.9403 0,1.20076 0.556642,1.94029 0.556642,0.73954 1.56655,0.73954 z"
         style="font-style:normal;font-variant:normal;font-weight:normal;font-stretch:normal;font-family:'Gilda Display';-inkscape-font-specification:'Gilda Display';text-align:center;text-anchor:middle;fill:#b5191a;fill-opacity:1;stroke:#b5191a;stroke-width:0.1"
         id="path889" />
      <path
         d="m 22.561901,116.48794 h 4.580369 v 1.14509 l -0.07952,-0.0159 q 0,-0.97015 -1.924391,-0.97015 v 3.61022 q 0,1.1769 0.135184,1.43137 0.04771,0.0954 0.166993,0.16699 0.11928,0.0716 0.254465,0.0875 0.135184,0.0159 0.373745,0.0159 l 0.0159,0.0954 h -2.449225 l 0.0159,-0.0954 q 0.238561,0 0.373745,-0.008 0.143137,-0.0159 0.254465,-0.0954 0.119281,-0.0795 0.166993,-0.16699 0.05566,-0.0875 0.09542,-0.31013 0.03976,-0.27037 0.03976,-1.12124 v -3.61022 q -1.924392,0 -1.924392,0.97015 l -0.09542,0.0159 z"
         style="font-style:normal;font-variant:normal;font-weight:normal;font-stretch:normal;font-family:'Gilda Display';-inkscape-font-specification:'Gilda Display';text-align:center;text-anchor:middle;fill:#b5191a;fill-opacity:1;stroke:#b5191a;stroke-width:0.1"
         id="path891" />
      <path
         d="m 30.307171,116.41637 q 1.280277,0 2.043672,0.78725 0.771347,0.7793 0.771347,2.02777 0,1.24052 -0.747491,2.07548 -0.739539,0.82701 -2.011864,0.82701 -1.272325,0 -2.051624,-0.83496 -0.771347,-0.83497 -0.771347,-2.07548 0,-1.24847 0.739539,-2.02777 0.747491,-0.7793 2.027768,-0.7793 z m 0.04771,5.53461 q 1.01786,0 1.542694,-0.73158 0.532786,-0.73954 0.532786,-1.9403 0,-1.20076 -0.556642,-1.94029 -0.556642,-0.73954 -1.574502,-0.73954 -1.009908,0 -1.542694,0.73158 -0.524834,0.73159 -0.524834,1.9403 0,1.20076 0.556642,1.94029 0.556642,0.73954 1.56655,0.73954 z"
         style="font-style:normal;font-variant:normal;font-weight:normal;font-stretch:normal;font-family:'Gilda Display';-inkscape-font-specification:'Gilda Display';text-align:center;text-anchor:middle;fill:#b5191a;fill-opacity:1;stroke:#b5191a;stroke-width:0.1"
         id="path893" />
      <path
         d="m 38.720413,120.56733 v 0.98605 q -0.397601,0.24651 -0.962195,0.41351 -0.556642,0.16699 -1.137141,0.16699 -1.264372,0 -2.043671,-0.81906 -0.779299,-0.81906 -0.779299,-2.04367 0,-1.22461 0.747491,-2.03572 0.755442,-0.81906 2.027767,-0.81906 0.556642,0 1.121237,0.15904 0.564594,0.15109 0.834963,0.32603 v 1.01786 l -0.08747,-0.0159 q -0.08747,-0.63616 -0.620258,-0.97015 -0.532786,-0.33398 -1.248469,-0.33398 -1.01786,0 -1.550646,0.73158 -0.532786,0.73159 -0.532786,1.9403 0,1.20076 0.556642,1.94029 0.556643,0.73954 1.614263,0.73954 1.065572,0 1.502933,-0.66797 v -0.62026 q 0,-0.88267 -0.103376,-1.08147 -0.09542,-0.20675 -0.572546,-0.20675 l -0.0159,-0.0795 h 1.948247 l -0.0159,0.0795 q -0.453266,0 -0.572546,0.2147 -0.111329,0.2147 -0.111329,0.9781 z"
         style="font-style:normal;font-variant:normal;font-weight:normal;font-stretch:normal;font-family:'Gilda Display';-inkscape-font-specification:'Gilda Display';text-align:center;text-anchor:middle;fill:#b5191a;fill-opacity:1;stroke:#b5191a;stroke-width:0.1"
         id="path895" />
      <path
         d="m 44.183444,122.05436 q -0.198801,0 -0.397602,-0.1988 -0.190848,-0.20675 -0.349889,-0.50893 -0.151088,-0.30218 -0.357841,-0.65207 -0.206753,-0.35784 -0.413506,-0.66797 -0.206753,-0.31013 -0.524834,-0.52483 -0.318081,-0.21471 -0.675922,-0.23061 v 0.98605 q 0,0.85882 0.04771,1.16895 0.05566,0.30218 0.151088,0.3817 0.190849,0.15109 0.588451,0.15109 l 0.0159,0.0954 h -2.131144 l 0.0159,-0.0954 q 0.389649,0 0.572546,-0.14314 0.151088,-0.11928 0.174945,-0.7793 0.0159,-0.26242 0.0159,-0.7793 v -2.01186 q 0,-0.88268 -0.04771,-1.16895 -0.04771,-0.28627 -0.143136,-0.35784 -0.182897,-0.13519 -0.572546,-0.13519 l -0.0159,-0.0954 h 1.844871 q 2.003911,0 2.003911,1.35184 0,0.5805 -0.413505,0.9781 -0.405554,0.38965 -0.986052,0.45327 0.580498,0.34194 1.073524,1.25642 0.190849,0.35784 0.405554,0.68387 0.469169,0.7475 1.208708,0.7475 l 0.0159,0.0954 z m -2.719594,-5.38352 v 2.44127 h 0.500978 q 0.604354,0 1.001955,-0.31013 0.397602,-0.31013 0.397602,-0.92244 0,-1.2087 -1.383653,-1.2087 z"
         style="font-style:normal;font-variant:normal;font-weight:normal;font-stretch:normal;font-family:'Gilda Display';-inkscape-font-specification:'Gilda Display';text-align:center;text-anchor:middle;fill:#b5191a;fill-opacity:1;stroke:#b5191a;stroke-width:0.1"
         id="path897" />
      <path
         d="m 48.41392,121.95894 q 0.302177,0 0.421458,-0.0477 0.127232,-0.0477 0.127232,-0.24651 0,-0.1988 -0.421457,-1.35185 h -2.42537 q -0.341937,1.00991 -0.341937,1.27233 0,0.25446 0.127232,0.31808 0.135185,0.0557 0.477122,0.0557 l 0.0159,0.0954 h -1.789206 l 0.0159,-0.0954 q 0.230609,0 0.357841,-0.0398 0.135185,-0.0398 0.286273,-0.20675 0.159041,-0.17494 0.302177,-0.50098 0.143137,-0.32603 0.341938,-0.91448 l 0.70773,-2.04367 q 0.373746,-1.08148 0.373746,-1.31209 0,-0.2306 -0.111329,-0.29422 -0.111328,-0.0716 -0.429409,-0.0716 l -0.0159,-0.0875 h 1.312084 l 1.40751,3.80902 q 0.357841,0.94629 0.477122,1.20076 0.127232,0.25446 0.238561,0.32603 0.1988,0.13519 0.500977,0.13519 l 0.0159,0.0954 h -1.988008 z m -1.113284,-5.04159 -1.121236,3.20467 h 2.298136 z"
         style="font-style:normal;font-variant:normal;font-weight:normal;font-stretch:normal;font-family:'Gilda Display';-inkscape-font-specification:'Gilda Display';text-align:center;text-anchor:middle;fill:#b5191a;fill-opacity:1;stroke:#b5191a;stroke-width:0.1"
         id="path899" />
      <path
         d="m 54.210939,116.48794 v 1.14509 l -0.08747,-0.0159 q 0,-0.52484 -0.564595,-0.73159 -0.556642,-0.2147 -1.701734,-0.2147 v 2.50488 q 0.461218,-0.0159 0.715683,-0.0477 0.262417,-0.0398 0.397601,-0.15109 0.135185,-0.11928 0.166993,-0.25446 0.03181,-0.13519 0.03181,-0.41351 l 0.09542,-0.0159 v 1.93234 l -0.09542,-0.0159 q 0,-0.36579 -0.07952,-0.52484 -0.07157,-0.15904 -0.34989,-0.23856 -0.270369,-0.0795 -0.882675,-0.0954 v 0.90653 q 0,1.12919 0.103376,1.32004 0.04771,0.10337 0.103377,0.1988 0.06362,0.0875 0.182896,0.11928 0.254465,0.0636 0.620259,0.0636 l 0.0159,0.0954 h -2.385609 l 0.0159,-0.0954 q 0.397601,0 0.580498,-0.15109 0.198801,-0.167 0.198801,-1.55065 v -1.9721 q 0,-0.85087 -0.05566,-1.161 -0.04771,-0.31808 -0.143137,-0.3976 -0.182897,-0.15109 -0.580498,-0.15109 l -0.0159,-0.0875 z"
         style="font-style:normal;font-variant:normal;font-weight:normal;font-stretch:normal;font-family:'Gilda Display';-inkscape-font-specification:'Gilda Display';text-align:center;text-anchor:middle;fill:#b5191a;fill-opacity:1;stroke:#b5191a;stroke-width:0.1"
         id="path901" />
      <path
         d="m 57.431511,116.41637 q 1.280277,0 2.043672,0.78725 0.771347,0.7793 0.771347,2.02777 0,1.24052 -0.747491,2.07548 -0.739539,0.82701 -2.011864,0.82701 -1.272325,0 -2.051624,-0.83496 -0.771346,-0.83497 -0.771346,-2.07548 0,-1.24847 0.739538,-2.02777 0.747491,-0.7793 2.027768,-0.7793 z m 0.04771,5.53461 q 1.01786,0 1.542694,-0.73158 0.532786,-0.73954 0.532786,-1.9403 0,-1.20076 -0.556642,-1.94029 -0.556642,-0.73954 -1.574502,-0.73954 -1.009908,0 -1.542694,0.73158 -0.524834,0.73159 -0.524834,1.9403 0,1.20076 0.556642,1.94029 0.556642,0.73954 1.56655,0.73954 z"
         style="font-style:normal;font-variant:normal;font-weight:normal;font-stretch:normal;font-family:'Gilda Display';-inkscape-font-specification:'Gilda Display';text-align:center;text-anchor:middle;fill:#b5191a;fill-opacity:1;stroke:#b5191a;stroke-width:0.1"
         id="path903" />
      <path
         d="m 61.176912,120.36853 q 0,0.77135 0.373745,1.1769 0.381698,0.40555 0.930388,0.40555 0.54869,0 0.898579,-0.26241 0.349889,-0.27037 0.349889,-0.84292 0,-0.51688 -0.54869,-0.92243 -0.238561,-0.17495 -0.532786,-0.34194 -0.294225,-0.17495 -0.58845,-0.35784 -0.294225,-0.1829 -0.532786,-0.3817 -0.54869,-0.46122 -0.54869,-1.07352 0,-0.62026 0.445314,-0.98606 0.453265,-0.36579 1.192804,-0.36579 0.747491,0 1.383653,0.32603 0,0.3976 -0.11928,1.36775 l -0.11928,-0.0318 q 0,-0.74749 -0.365794,-1.11328 -0.365793,-0.37375 -0.842915,-0.37375 -0.46917,0 -0.755443,0.27833 -0.286273,0.27036 -0.286273,0.64411 0,0.37375 0.198801,0.64411 0.206753,0.26242 0.50893,0.43737 0.310129,0.17494 0.66797,0.38965 0.357842,0.20675 0.660019,0.4135 0.310129,0.1988 0.50893,0.52484 0.206752,0.32603 0.206752,0.73158 0,0.73159 -0.524834,1.10533 -0.516881,0.37375 -1.248468,0.37375 -0.405554,0 -0.834963,-0.12723 -0.421458,-0.12724 -0.691827,-0.37375 0,-0.50893 0.09542,-1.28823 z"
         style="font-style:normal;font-variant:normal;font-weight:normal;font-stretch:normal;font-family:'Gilda Display';-inkscape-font-specification:'Gilda Display';text-align:center;text-anchor:middle;fill:#b5191a;fill-opacity:1;stroke:#b5191a;stroke-width:0.1"
         id="path905" />
      <path
         d="m 74.186385,121.95894 q 0.302177,0 0.421457,-0.0477 0.127233,-0.0477 0.127233,-0.24651 0,-0.1988 -0.421458,-1.35185 h -2.425369 q -0.341937,1.00991 -0.341937,1.27233 0,0.25446 0.127232,0.31808 0.135185,0.0557 0.477122,0.0557 l 0.0159,0.0954 h -1.789207 l 0.0159,-0.0954 q 0.230609,0 0.357842,-0.0398 0.135184,-0.0398 0.286273,-0.20675 0.15904,-0.17494 0.302177,-0.50098 0.143137,-0.32603 0.341937,-0.91448 l 0.707731,-2.04367 q 0.373745,-1.08148 0.373745,-1.31209 0,-0.2306 -0.111328,-0.29422 -0.111328,-0.0716 -0.42941,-0.0716 l -0.0159,-0.0875 h 1.312085 l 1.40751,3.80902 q 0.357841,0.94629 0.477121,1.20076 0.127233,0.25446 0.238561,0.32603 0.198801,0.13519 0.500978,0.13519 l 0.0159,0.0954 h -1.988007 z m -1.113284,-5.04159 -1.121237,3.20467 h 2.298137 z"
         style="font-style:normal;font-variant:normal;font-weight:normal;font-stretch:normal;font-family:'Gilda Display';-inkscape-font-specification:'Gilda Display';text-align:center;text-anchor:middle;fill:#b5191a;fill-opacity:1;stroke:#b5191a;stroke-width:0.1"
         id="path907" />
      <path
         d="m 80.333293,122.05436 q -0.198801,0 -0.397602,-0.1988 -0.190848,-0.20675 -0.349889,-0.50893 -0.151088,-0.30218 -0.357841,-0.65207 -0.206753,-0.35784 -0.413506,-0.66797 -0.206753,-0.31013 -0.524834,-0.52483 -0.318081,-0.21471 -0.675922,-0.23061 v 0.98605 q 0,0.85882 0.04771,1.16895 0.05566,0.30218 0.151088,0.3817 0.190849,0.15109 0.588451,0.15109 l 0.0159,0.0954 H 76.28571 l 0.0159,-0.0954 q 0.389649,0 0.572546,-0.14314 0.151088,-0.11928 0.174944,-0.7793 0.01591,-0.26242 0.01591,-0.7793 v -2.01186 q 0,-0.88268 -0.04771,-1.16895 -0.04771,-0.28627 -0.143136,-0.35784 -0.182897,-0.13519 -0.572546,-0.13519 l -0.0159,-0.0954 h 1.844871 q 2.003911,0 2.003911,1.35184 0,0.5805 -0.413505,0.9781 -0.405554,0.38965 -0.986052,0.45327 0.580498,0.34194 1.073524,1.25642 0.190849,0.35784 0.405553,0.68387 0.46917,0.7475 1.208709,0.7475 l 0.0159,0.0954 z m -2.719594,-5.38352 v 2.44127 h 0.500977 q 0.604355,0 1.001956,-0.31013 0.397602,-0.31013 0.397602,-0.92244 0,-1.2087 -1.383653,-1.2087 z"
         style="font-style:normal;font-variant:normal;font-weight:normal;font-stretch:normal;font-family:'Gilda Display';-inkscape-font-specification:'Gilda Display';text-align:center;text-anchor:middle;fill:#b5191a;fill-opacity:1;stroke:#b5191a;stroke-width:0.1"
         id="path909" />
      <path
         d="m 86.360932,120.56733 v 0.98605 q -0.397602,0.24651 -0.962196,0.41351 -0.556642,0.16699 -1.13714,0.16699 -1.264373,0 -2.043672,-0.81906 -0.779299,-0.81906 -0.779299,-2.04367 0,-1.22461 0.747491,-2.03572 0.755443,-0.81906 2.027767,-0.81906 0.556643,0 1.121237,0.15904 0.564594,0.15109 0.834963,0.32603 v 1.01786 l -0.08747,-0.0159 q -0.08747,-0.63616 -0.620259,-0.97015 -0.532786,-0.33398 -1.248469,-0.33398 -1.017859,0 -1.550645,0.73158 -0.532786,0.73159 -0.532786,1.9403 0,1.20076 0.556642,1.94029 0.556642,0.73954 1.614262,0.73954 1.065572,0 1.502933,-0.66797 v -0.62026 q 0,-0.88267 -0.103376,-1.08147 -0.09542,-0.20675 -0.572546,-0.20675 l -0.0159,-0.0795 h 1.948247 l -0.0159,0.0795 q -0.453266,0 -0.572546,0.2147 -0.111328,0.2147 -0.111328,0.9781 z"
         style="font-style:normal;font-variant:normal;font-weight:normal;font-stretch:normal;font-family:'Gilda Display';-inkscape-font-specification:'Gilda Display';text-align:center;text-anchor:middle;fill:#b5191a;fill-opacity:1;stroke:#b5191a;stroke-width:0.1"
         id="path911" />
      <path
         d="m 91.768294,122.05436 h -4.007823 l 0.0159,-0.0954 q 0.397601,0 0.580498,-0.15109 0.198801,-0.167 0.198801,-1.55065 v -1.9721 q 0,-0.85087 -0.05566,-1.161 -0.04771,-0.31808 -0.143137,-0.3976 -0.182897,-0.15109 -0.580498,-0.15109 l -0.0159,-0.0875 h 3.713598 v 1.14509 l -0.09542,-0.0159 q 0,-0.53279 -0.564594,-0.73954 -0.556643,-0.20675 -1.709687,-0.20675 v 2.50488 q 0.763395,0 1.09738,-0.0795 0.333985,-0.0795 0.42941,-0.23856 0.09542,-0.16699 0.09542,-0.54869 l 0.08747,-0.0159 v 1.93234 l -0.08747,-0.0159 q 0,-0.38965 -0.09542,-0.54869 -0.09542,-0.15904 -0.42941,-0.23061 -0.333985,-0.0795 -1.09738,-0.0795 v 1.02581 q 0,0.84292 0.05566,1.12124 0.06362,0.27832 0.270369,0.37374 2.242473,0 2.242473,-0.95424 l 0.09542,-0.0159 z"
         style="font-style:normal;font-variant:normal;font-weight:normal;font-stretch:normal;font-family:'Gilda Display';-inkscape-font-specification:'Gilda Display';text-align:center;text-anchor:middle;fill:#b5191a;fill-opacity:1;stroke:#b5191a;stroke-width:0.1"
         id="path913" />
      <path
         d="m 97.644839,118.27715 v 3.81697 h -0.246513 l -3.745406,-4.73146 v 2.87864 q 0,0.7952 0.07157,1.14509 0.07157,0.34989 0.238561,0.46122 0.166993,0.11133 0.54869,0.11133 l 0.0159,0.0954 h -1.956199 l 0.0159,-0.0954 q 0.381697,0 0.54869,-0.11133 0.166993,-0.11133 0.238561,-0.46122 0.07952,-0.34989 0.07952,-1.14509 v -1.96415 q 0,-0.79521 -0.07952,-1.13715 -0.07157,-0.34988 -0.238561,-0.45326 -0.159041,-0.11133 -0.54869,-0.11133 l -0.0159,-0.0875 h 1.081476 l 3.793118,4.73146 v -2.94225 q 0,-0.78726 -0.07952,-1.13715 -0.07157,-0.34988 -0.238561,-0.45326 -0.166993,-0.11133 -0.556642,-0.11133 l -0.0159,-0.0875 h 1.972103 l -0.0159,0.0875 q -0.389649,0 -0.556642,0.11133 -0.166992,0.10338 -0.238561,0.45326 -0.07157,0.34989 -0.07157,1.13715 z"
         style="font-style:normal;font-variant:normal;font-weight:normal;font-stretch:normal;font-family:'Gilda Display';-inkscape-font-specification:'Gilda Display';text-align:center;text-anchor:middle;fill:#b5191a;fill-opacity:1;stroke:#b5191a;stroke-width:0.1"
         id="path915" />
      <path
         d="m 98.956919,116.48794 h 4.580371 v 1.14509 l -0.0795,-0.0159 q 0,-0.97015 -1.92439,-0.97015 v 3.61022 q 0,1.1769 0.13518,1.43137 0.0477,0.0954 0.16699,0.16699 0.11928,0.0716 0.25447,0.0875 0.13518,0.0159 0.37374,0.0159 l 0.0159,0.0954 h -2.44923 l 0.0159,-0.0954 q 0.23856,0 0.37374,-0.008 0.14314,-0.0159 0.25447,-0.0954 0.11928,-0.0795 0.16699,-0.16699 0.0557,-0.0875 0.0954,-0.31013 0.0398,-0.27037 0.0398,-1.12124 v -3.61022 q -1.924396,0 -1.924396,0.97015 l -0.09543,0.0159 z"
         style="font-style:normal;font-variant:normal;font-weight:normal;font-stretch:normal;font-family:'Gilda Display';-inkscape-font-specification:'Gilda Display';text-align:center;text-anchor:middle;fill:#b5191a;fill-opacity:1;stroke:#b5191a;stroke-width:0.1"
         id="path917" />
      <path
         d="m 105.40601,118.2851 v 1.9721 q 0,0.85087 0.0477,1.161 0.0557,0.31013 0.15109,0.38965 0.1829,0.15109 0.5805,0.15109 l 0.0159,0.0954 h -2.14705 l 0.0159,-0.0954 q 0.1988,0 0.31013,-0.0159 0.11133,-0.0159 0.20675,-0.0875 0.10338,-0.0716 0.14314,-0.15904 0.0477,-0.0954 0.0795,-0.31013 0.0398,-0.27832 0.0398,-1.12919 v -1.9721 q 0,-0.82701 -0.0477,-1.15305 -0.0477,-0.32603 -0.14314,-0.40555 -0.19085,-0.15109 -0.58845,-0.15109 l -0.0159,-0.0875 h 2.14705 l -0.0159,0.0875 q -0.3976,0 -0.5805,0.15109 -0.1988,0.16699 -0.1988,1.5586 z"
         style="font-style:normal;font-variant:normal;font-weight:normal;font-stretch:normal;font-family:'Gilda Display';-inkscape-font-specification:'Gilda Display';text-align:center;text-anchor:middle;fill:#b5191a;fill-opacity:1;stroke:#b5191a;stroke-width:0.1"
         id="path919" />
      <path
         d="m 111.98233,118.27715 v 3.81697 h -0.24651 l -3.74541,-4.73146 v 2.87864 q 0,0.7952 0.0716,1.14509 0.0716,0.34989 0.23856,0.46122 0.167,0.11133 0.54869,0.11133 l 0.0159,0.0954 h -1.9562 l 0.0159,-0.0954 q 0.3817,0 0.54869,-0.11133 0.16699,-0.11133 0.23856,-0.46122 0.0795,-0.34989 0.0795,-1.14509 v -1.96415 q 0,-0.79521 -0.0795,-1.13715 -0.0716,-0.34988 -0.23856,-0.45326 -0.15904,-0.11133 -0.54869,-0.11133 l -0.0159,-0.0875 h 1.08147 l 3.79312,4.73146 v -2.94225 q 0,-0.78726 -0.0795,-1.13715 -0.0716,-0.34988 -0.23856,-0.45326 -0.16699,-0.11133 -0.55664,-0.11133 l -0.0159,-0.0875 h 1.97211 l -0.0159,0.0875 q -0.38965,0 -0.55664,0.11133 -0.16699,0.10338 -0.23856,0.45326 -0.0716,0.34989 -0.0716,1.13715 z"
         style="font-style:normal;font-variant:normal;font-weight:normal;font-stretch:normal;font-family:'Gilda Display';-inkscape-font-specification:'Gilda Display';text-align:center;text-anchor:middle;fill:#b5191a;fill-opacity:1;stroke:#b5191a;stroke-width:0.1"
         id="path921" />
      <path
         d="m 116.22076,116.41637 q 1.28028,0 2.04367,0.78725 0.77135,0.7793 0.77135,2.02777 0,1.24052 -0.74749,2.07548 -0.73954,0.82701 -2.01187,0.82701 -1.27232,0 -2.05162,-0.83496 -0.77135,-0.83497 -0.77135,-2.07548 0,-1.24847 0.73954,-2.02777 0.74749,-0.7793 2.02777,-0.7793 z m 0.0477,5.53461 q 1.01786,0 1.5427,-0.73158 0.53278,-0.73954 0.53278,-1.9403 0,-1.20076 -0.55664,-1.94029 -0.55664,-0.73954 -1.5745,-0.73954 -1.00991,0 -1.5427,0.73158 -0.52483,0.73159 -0.52483,1.9403 0,1.20076 0.55664,1.94029 0.55664,0.73954 1.56655,0.73954 z"
         style="font-style:normal;font-variant:normal;font-weight:normal;font-stretch:normal;font-family:'Gilda Display';-inkscape-font-specification:'Gilda Display';text-align:center;text-anchor:middle;fill:#b5191a;fill-opacity:1;stroke:#b5191a;stroke-width:0.1"
         id="path923" />
      <path
         d="m 119.96616,120.36853 q 0,0.77135 0.37375,1.1769 0.38169,0.40555 0.93038,0.40555 0.54869,0 0.89858,-0.26241 0.34989,-0.27037 0.34989,-0.84292 0,-0.51688 -0.54869,-0.92243 -0.23856,-0.17495 -0.53278,-0.34194 -0.29423,-0.17495 -0.58845,-0.35784 -0.29423,-0.1829 -0.53279,-0.3817 -0.54869,-0.46122 -0.54869,-1.07352 0,-0.62026 0.44531,-0.98606 0.45327,-0.36579 1.19281,-0.36579 0.74749,0 1.38365,0.32603 0,0.3976 -0.11928,1.36775 l -0.11928,-0.0318 q 0,-0.74749 -0.36579,-1.11328 -0.3658,-0.37375 -0.84292,-0.37375 -0.46917,0 -0.75544,0.27833 -0.28627,0.27036 -0.28627,0.64411 0,0.37375 0.1988,0.64411 0.20675,0.26242 0.50893,0.43737 0.31013,0.17494 0.66797,0.38965 0.35784,0.20675 0.66002,0.4135 0.31013,0.1988 0.50893,0.52484 0.20675,0.32603 0.20675,0.73158 0,0.73159 -0.52484,1.10533 -0.51688,0.37375 -1.24846,0.37375 -0.40556,0 -0.83497,-0.12723 -0.42145,-0.12724 -0.69182,-0.37375 0,-0.50893 0.0954,-1.28823 z"
         style="font-style:normal;font-variant:normal;font-weight:normal;font-stretch:normal;font-family:'Gilda Display';-inkscape-font-specification:'Gilda Display';text-align:center;text-anchor:middle;fill:#b5191a;fill-opacity:1;stroke:#b5191a;stroke-width:0.1"
         id="path925" />
    </g>
    <text
       xml:space="preserve"
       style="font-size:10.5833px;line-height:1.25;font-family:Montserrat;-inkscape-font-specification:Montserrat;fill:#b5191a;fill-opacity:1;stroke-width:0.264583"
       x="132.25633"
       y="44.671268"
       id="text1065"><tspan
         sodipodi:role="line"
         id="tspan1063"
         x="132.25633"
         y="44.671268"
         style="font-style:normal;font-variant:normal;font-weight:normal;font-stretch:normal;font-family:'Gilda Display';-inkscape-font-specification:'Gilda Display';fill:#b5191a;fill-opacity:1;stroke-width:0.264583">FOTOGRAFOS</tspan><tspan
         sodipodi:role="line"
         x="132.25633"
         y="58.283871"
         style="font-style:normal;font-variant:normal;font-weight:normal;font-stretch:normal;font-family:'Gilda Display';-inkscape-font-specification:'Gilda Display';fill:#b5191a;fill-opacity:1;stroke-width:0.264583"
         id="tspan1067">ARGENTINOS</tspan></text>
    <path
       style="fill:none;fill-opacity:1;stroke:#b5191a;stroke-width:0.501052;stroke-linecap:butt;stroke-linejoin:miter;stroke-opacity:1"
       d="M 3.9687501,16.304257 H 91.281252"
       id="path1069" />
    <text
       xml:space="preserve"
       style="font-style:normal;font-variant:normal;font-weight:normal;font-stretch:normal;font-size:2.19883px;line-height:1.25;font-family:System-ui;-inkscape-font-specification:System-ui;fill:#241c1c;stroke-width:0.109942"
       x="41.851528"
       y="14.060714"
       id="text1136"><tspan
         sodipodi:role="line"
         id="tspan1134"
         x="41.851528"
         y="14.060714"
         style="font-style:normal;font-variant:normal;font-weight:normal;font-stretch:normal;font-size:2.19884px;font-family:System-ui;-inkscape-font-specification:System-ui;fill:#241c1c;stroke-width:0.109942">Comunidad Argentina de Fotógrafos</tspan></text>
    <text
       xml:space="preserve"
       style="font-size:10.5833px;line-height:1.25;font-family:Montserrat;-inkscape-font-specification:Montserrat;stroke-width:0.264583"
       x="169.84369"
       y="68.03199"
       id="text1140"><tspan
         sodipodi:role="line"
         id="tspan1138"
         x="169.84369"
         y="68.03199"
         style="stroke-width:0.264583" /></text>
    <text
       xml:space="preserve"
       style="font-size:2.50509px;line-height:1.25;font-family:Montserrat;-inkscape-font-specification:Montserrat;letter-spacing:0.264583px;word-spacing:0.529167px;fill:#b5191a;fill-opacity:1;stroke-width:0.0626272;"
       x="33.193382"
       y="32.499237"
       id="text1144"><tspan
         sodipodi:role="line"
         id="tspan1142"
         x="33.193382"
         y="32.499237"
         style="font-style:normal;font-variant:normal;font-weight:normal;font-stretch:normal;font-family:System-ui;-inkscape-font-specification:System-ui;fill:#b5191a;fill-opacity:1;stroke-width:0.0626272;">INGRESÁ TUS DATOS</tspan></text>
    <rect
       style="fill:#ffffff;fill-opacity:1;stroke:#b5191a;stroke-width:0.223828;stroke-linecap:round"
       id="rect1711"
       width="87.966064"
       height="4.9361124"
       x="3.2559628"
       y="46.186668"
       ry="0.59376276" />
    <text
       xml:space="preserve"
       style="font-size:3.70416676px;line-height:1.25;font-family:Montserrat;-inkscape-font-specification:Montserrat;stroke-width:0.182643;font-weight:normal;font-style:normal;font-stretch:normal;font-variant:normal;"
       x="38.037804"
       y="44.928776"
       id="text1715"><tspan
         sodipodi:role="line"
         id="tspan1713"
         x="38.037804"
         y="44.928776"
         style="stroke-width:0.182643;-inkscape-font-specification:Montserrat;font-family:Montserrat;font-weight:normal;font-style:normal;font-stretch:normal;font-variant:normal;font-size:3.70416676px;">0 fotógrafos</tspan></text>
    <text
       id="text876"
       y="63.361977"
       x="6.8573852"
       style="font-size:4.23333px;line-height:1.25;font-family:System-ui;-inkscape-font-specification:System-ui;stroke-width:0.264583"
       xml:space="preserve"><tspan
         style="stroke-width:0.264583"
         y="63.361977"
         x="6.8573852"
         id="tspan874"
         sodipodi:role="line">Nombre</tspan></text>
    <path
       id="path878"
       d="M 3.9687501,64.987621 H 91.281252"
       style="fill:none;fill-opacity:1;stroke:#b5191a;stroke-width:0.26458334;stroke-linecap:butt;stroke-linejoin:miter;stroke-opacity:1" />
    <text
       xml:space="preserve"
       style="font-size:4.23333px;line-height:1.25;font-family:System-ui;-inkscape-font-specification:System-ui;stroke-width:0.264583"
       x="53.424061"
       y="63.361977"
       id="text882"><tspan
         sodipodi:role="line"
         id="tspan880"
         x="53.424061"
         y="63.361977"
         style="stroke-width:0.264583">Ciudad</tspan></text>
  </g>
</svg>
